<svg xmlns="http://www.w3.org/2000/svg" viewBox="-50 -50 100 100" width="42" height="42">
  <path fill="currentColor" d="M-6.8-26.96A28.8 28.8 0 00-27.92-.56a28.8 28.8 0 0028.8 28.8 28.8 28.8 0 0026.4-21.12 28.8 28.8 0 01-2.304.528 28.8 28.8 0 01-2.88.336 28.8 28.8 0 01-1.992.07 28.8 28.8 0 01-2.88-.142 28.8 28.8 0 01-2.88-.432 28.8 28.8 0 01-2.64-.696 28.8 28.8 0 01-2.64-.96A28.8 28.8 0 016.424 4.6a28.8 28.8 0 01-2.4-1.464 28.8 28.8 0 01-2.256-1.704A28.8 28.8 0 01-.296-.488 28.8 28.8 0 01-2.168-2.6 28.8 28.8 0 01-3.8-4.904a28.8 28.8 0 01-1.392-2.4 28.8 28.8 0 01-1.152-2.64 28.8 28.8 0 01-.888-2.64 28.8 28.8 0 01-.624-2.64 28.8 28.8 0 01-.336-2.88 28.8 28.8 0 01-.07-1.992 28.8 28.8 0 01.142-2.88 28.8 28.8 0 01.432-2.88 28.8 28.8 0 01.384-1.536z"/>
</svg>