<svg xmlns="http://www.w3.org/2000/svg" viewBox="-50 -50 100 100"><g stroke="currentColor" stroke-width="8" fill="currentColor"><path d="M0 0v36a5 5 0 010 10 5 5 0 010-10v-72a5 5 0 010-10 5 5 0 010 10"/><path d="M0 0l-25.456 25.456a5 5 0 01-7.07 7.07 5 5 0 017.07-7.07l50.912-50.912a5 5 0 017.07-7.07 5 5 0 01-7.07 7.07"/><path d="M0 0h-36a5 5 0 01-10 0 5 5 0 0110 0h72a5 5 0 0110 0 5 5 0 01-10 0"/><path d="M0 0l-25.456-25.456a5 5 0 01-7.07-7.07 5 5 0 017.07 7.07l50.912 50.912a5 5 0 017.07 7.07 5 5 0 01-7.07-7.07"/></g></svg>