<svg xmlns="http://www.w3.org/2000/svg" viewBox="0 0 100 100">
    <defs>
        <mask id="android--mask">
            <path d="M -28 32 a 28 28 0 0 1 56 0 z" fill="hsl(0, 0%, 100%)" />
            <g fill="hsl(0, 0%, 0%)">
                <g transform="translate(0 20)">
                    <circle cx="-11" r="3" />
                    <circle cx="11" r="3" />
                </g>
            </g>
        </mask>
    </defs>

    <g fill="currentColor" transform="translate(50 0)">
        <rect x="-41" y="35" width="10" height="40" rx="5" />
        <rect x="31" y="35" width="10" height="40" rx="5" />

        <path mask="url(#android--mask)" d="M -28 32 a 28 28 0 0 1 56 0 z" />

        <g fill="none" stroke="currentColor" stroke-width="5" stroke-linecap="round">
            <g transform="translate(0 26)">
                <path transform="rotate(-45) translate(0 -22)" d="M 0 0 v -10" />
                <path transform="scale(-1 1) rotate(-45) translate(0 -22)" d="M 0 0 v -10" />
            </g>
        </g>

        <path d="M -28 35 v 38 a 10 10 0 0 0 10 10 h 36 a 10 10 0 0 0 10 -10 v -38 z" />

        <rect x="-15" y="70" width="10" height="30" rx="5" />
        <rect x="5" y="70" width="10" height="30" rx="5" />
    </g>
</svg>