<svg viewBox="0 0 100 100" xmlns="http://www.w3.org/2000/svg"><path d="M38.461 5A54.67 54.67 0 0158.69 25h13.811c4.26 0 7.5 3.24 7.5 7.5s-3.24 7.5-7.5 7.5h-7.873a53.544 53.544 0 011.373 12c0 2.717-.207 5.388-.6 8h7.1c4.26 0 7.5 3.24 7.5 7.5s-3.24 7.5-7.5 7.5H60.81a54.598 54.598 0 01-16.268 20h27.959c15.069 0 27.5-12.431 27.5-27.5 0-6.656-2.52-12.717-6.527-17.5C97.48 45.217 100 39.156 100 32.5c0-15.069-12.431-27.5-27.5-27.5H38.462z" paint-order="stroke fill markers"/><path d="M0 15h10a35 35 0 010 70H0" fill="none" stroke="currentColor" stroke-width="20"/></svg>