<svg viewBox="-50 -50 100 100" xmlns="http://www.w3.org/2000/svg"><path fill="currentColor" d="M-.074-49.999a5 5 0 00-3.461 1.465L-15.09-36.98l12.487 12.486A7 7 0 010-25a7 7 0 017 7 7 7 0 01-.507 2.602l8.904 8.904A7 7 0 0118.001-7a7 7 0 017 7 7 7 0 01-7 7 7 7 0 01-7-7 7 7 0 01.507-2.602L2.75-11.358v22.924A7 7 0 017 18a7 7 0 01-7 7 7 7 0 01-7-7 7 7 0 014.25-6.428v-23.137A7 7 0 01-7-17.999a7 7 0 01.508-2.602L-18.98-33.089-48.536-3.534a5 5 0 000 7.07l45.001 45a5 5 0 007.07 0l45.002-45a5 5 0 000-7.07l-45.001-45a5 5 0 00-3.61-1.465z"/></svg>