<svg xmlns="http://www.w3.org/2000/svg" viewBox="0 0 100 100">
    <g transform="translate(5 5)">
        <g stroke="currentColor" stroke-width="10" fill="none">
            <path d="M 27.5 0 a 20 20 0 0 0 -20 20 v 12.5 a 12.5 12.5 0 0 1 -12.5 12.5 12.5 12.5 0 0 1 12.5 12.5 v 12.5 a 20 20 0 0 0 20 20" />
            <path transform="translate(90 0) scale(-1 1)" d="M 27.5 0 a 20 20 0 0 0 -20 20 v 12.5 a 12.5 12.5 0 0 1 -12.5 12.5 12.5 12.5 0 0 1 12.5 12.5 v 12.5 a 20 20 0 0 0 20 20" />
        </g>
    </g>
    <g fill="currentColor" transform="translate(50 50)">
        <circle r="4" />
        <circle cx="-16" r="4" />
        <circle cx="16" r="4" />
    </g>
</svg>