<svg xmlns="http://www.w3.org/2000/svg" viewBox="-50 -50 100 100" width="42" height="42">
  <g stroke="currentColor"  stroke-linejoin="round" stroke-linecap="round">
    <g stroke-width="8" fill="currentColor">
      <path  d="M -0 -18 h 9 a 15 15 0 0 1 15 15 v 15 a 24 24 0 0 1 -48 0 v -15 a 15 15 0 0 1 15 -15 h 9" />
      <path  d="M -0 -31 h 12 q 5 0 5 -5 0 -10 -17 -10 -17 0 -17 10 0 5 5 5 h 12" />
    </g>
    <g stroke-width="10" fill="none">
      <path d="M -25 14 h -17" />
      <path d="M -22 0 a 17 17 0 0 1 -17 -17" />
      <path d="M -15 27 a 17 17 0 0 0 -17 17" />
      <g transform="scale(-1 1)">
        <path d="M -25 14 h -17" />
        <path d="M -22 0 a 17 17 0 0 1 -17 -17" />
        <path d="M -15 27 a 17 17 0 0 0 -17 17" />
      </g>
    </g>
  </g>
</svg>