<svg xmlns="http://www.w3.org/2000/svg" viewBox="-50 -50 100 100">
    <defs>
        <mask id="android--mask">
            <path d="M -28 -18 a 28 28 0 0 1 56 0 z" fill="hsl(0, 0%, 100%)" />
            <g fill="hsl(0, 0%, 0%)">
                <g transform="translate(0 -30)">
                    <circle cx="-11" r="3" />
                    <circle cx="11" r="3" />
                </g>
            </g>
        </mask>
    </defs>
    <g fill="none" stroke="currentColor" stroke-width="5" stroke-linecap="round">
        <g transform="translate(0 -24)">
            <path transform="rotate(-45) translate(0 -22)" d="M 0 0 v -10" />
            <path transform="scale(-1 1) rotate(-45) translate(0 -22)" d="M 0 0 v -10" />
        </g>
    </g>
    <g fill="currentColor">
        <path mask="url(#android--mask)" d="M -28 -18 a 28 28 0 0 1 56 0 z" />
        <rect x="-41" y="-15" width="10" height="40" rx="5" />
        <rect x="31" y="-15" width="10" height="40" rx="5" />
        <path d="M -28 -15 v 38 a 10 10 0 0 0 10 10 h 36 a 10 10 0 0 0 10 -10 v -38 z" />
        <rect x="-15" y="20" width="10" height="30" rx="5" />
        <rect x="5" y="20" width="10" height="30" rx="5" />
    </g>
</svg>