<svg xmlns="http://www.w3.org/2000/svg" viewBox="-50 -50 100 100">
  <g>
    <mask id="mask--d">
      <path d="M -15 -35 h 37.5 a 17.5 17.5 0 0 1 0 35 h -10 h 10 a 17.5 17.5 0 0 1 0 35 h -37.5" stroke-width="20" stroke="hsl(0, 0%, 100%)" fill="none" />
      <g transform="translate(12 0) scale(1.2 1.2)">
        <path d="M -50 -35 h 10 a 35 35 0 0 1 0 70 h -10" stroke-width="20" stroke="hsl(0, 0%, 0%)" fill="none" />
      </g>
    </mask>
  </g>
  <g stroke="currentColor" stroke-width="20" fill="none">
    <path d="M -50 -35 h 10 a 35 35 0 0 1 0 70 h -10"  />
    <path mask="url(#mask--d)" d="M -15 -35 h 37.5 a 17.5 17.5 0 0 1 0 35 h -10 h 10 a 17.5 17.5 0 0 1 0 35 h -37.5" />
  </g>
</svg>