<svg xmlns="http://www.w3.org/2000/svg" viewBox="-50 -50 100 100" width="42" height="42">
  <defs>
    <mask id="mask--gaming">
      <rect x="-50" y="-50" width="100" height="100" fill="hsl(0, 0%, 100%)" />
      <g fill="hsl(0, 0%, 0%)" stroke="none">
        <circle r="5" cx="17" cy="-12" />
        <circle r="5" cx="25" cy="4" />
        <rect transform="translate(-17.5 -4)" rx="1" x="-3.5" y="-13" width="7" height="26" />
        <rect transform="translate(-17.5 -4) rotate(90)" rx="1" x="-3.5" y="-13" width="7" height="26" />
      </g>
    </mask>
  </defs>
  <g mask="url(#mask--gaming)">
    <g stroke="currentColor" stroke-width="10" stroke-linejoin="round" stroke-linecap="round" fill="currentColor">
      <path d="M -28 -27 h 56 q 6.5 0 9 9 l 7 32 q 4 16 -10 15 c -6 0 -12 -10 -18 -10 h -32 c -6 0 -12 10 -18 10 q -14 1 -10 -15 l 7 -32 q 2.5 -8 9 -9" />
    </g>
  </g>
</svg>